<svg width="125" height="129" viewBox="0 0 125 129" fill="none" xmlns="http://www.w3.org/2000/svg">
<rect x="17.0834" y="34.3441" width="102.667" height="89.8333" rx="17.9667" stroke="#292D32" stroke-width="9.625"/>
<path d="M41.5519 68.5632L32.83 94.0022C31.402 98.1671 34.497 102.5 38.8998 102.5H94.5201C99.7253 102.5 102.765 96.6285 99.7592 92.3785L88.3444 76.2364C86.0036 72.9262 81.2178 72.5895 78.4366 75.5393L73.4572 80.8204C70.7905 83.6487 66.2413 83.4751 63.7979 80.4517L52.6124 66.6111C49.4405 62.6863 43.1885 63.7898 41.5519 68.5632Z" fill="#A7D545"/>
<circle cx="94.0833" cy="57.5833" r="6.41667" fill="#A7D545"/>
<path d="M14.4252 83.4219L5.50275 39.147C3.55067 29.4604 9.78166 20.0167 19.4566 18.0075C28.5429 16.1205 39.5259 13.8397 48.1812 12.0423C57.5136 10.1042 69.5975 7.82339 79.0908 6.07268C87.9452 4.43978 96.6294 9.66474 99.015 18.3467C100.118 22.3623 101.197 26.5803 101.944 30.1771" stroke="#292D32" stroke-width="9.625" stroke-linecap="round"/>
</svg>
