<svg width="18" height="18" viewBox="0 0 18 18" fill="none" xmlns="http://www.w3.org/2000/svg">
<path d="M2.6 4.30241L3.24821 14.9317C3.31987 16.0936 4.29748 17 5.48197 17H12.1911C13.3497 17 14.3167 16.1317 14.4216 14.9978L15.4 4.30241M2.6 4.30241C1.63715 4.36836 1 4.4201 1 4.4201M2.6 4.30241C4.29113 4.1866 6.98698 4.02698 9 4.02698C11.013 4.02698 13.7089 4.1866 15.4 4.30241M15.4 4.30241C16.3628 4.36836 17 4.4201 17 4.4201" stroke="#C8102E" stroke-width="1.5" stroke-linecap="round"/>
<path d="M6.59998 3.59459V2C6.59998 1.44771 7.04769 1 7.59998 1H10.4C10.9523 1 11.4 1.44772 11.4 2V3.59459" stroke="#C8102E" stroke-width="1.5" stroke-linecap="round"/>
<path d="M5.80005 3.5946L7.40005 3.5946" stroke="#C8102E" stroke-width="1.5" stroke-linecap="round"/>
<path d="M10.6 3.5946H12.2" stroke="#C8102E" stroke-width="1.5" stroke-linecap="round"/>
<path d="M9 7.91895V13.1081" stroke="#C8102E" stroke-width="1.5" stroke-linecap="round"/>
<path d="M5.80005 8.78375L5.80005 12.2432" stroke="#C8102E" stroke-width="1.5" stroke-linecap="round"/>
<path d="M12.2 8.78375L12.2 12.2432" stroke="#C8102E" stroke-width="1.5" stroke-linecap="round"/>
</svg>
