<svg width="20" height="17" viewBox="0 0 20 17" fill="none" xmlns="http://www.w3.org/2000/svg">
<path d="M19.7909 5.85205L14.7908 0.851953C14.5118 0.573042 14.0596 0.573126 13.7806 0.85212C13.6468 0.986051 13.5715 1.16761 13.5715 1.357V3.49989H8.57141C8.1769 3.49989 7.8571 3.81969 7.8571 4.2142C7.8571 4.60871 8.1769 4.92851 8.57141 4.92851H14.2858C14.6803 4.92851 15.0001 4.60871 15.0001 4.2142V3.08127L18.2759 6.35705L15.0001 9.63283V8.49994C15.0001 8.10543 14.6803 7.78563 14.2858 7.78563H6.42852V5.64274C6.42843 5.24823 6.10855 4.92851 5.71408 4.9286C5.52474 4.92864 5.34313 5.00385 5.2092 5.13774L0.209152 10.1378C-0.0697172 10.4168 -0.0697172 10.8689 0.209152 11.1478L5.20925 16.1479C5.34318 16.2819 5.52482 16.3572 5.71425 16.3572C5.80813 16.3575 5.90117 16.3391 5.9878 16.303C6.25466 16.1923 6.4286 15.9318 6.42852 15.6429V13.5H11.4286C11.8231 13.5 12.1429 13.1802 12.1429 12.7857C12.1429 12.3912 11.8231 12.0714 11.4286 12.0714H5.71425C5.31974 12.0714 4.99994 12.3912 4.99994 12.7857V13.9186L1.72416 10.6428L4.99994 7.36705V8.49994C4.99994 8.89445 5.31974 9.21425 5.71425 9.21425H13.5715V11.3571C13.5716 11.7517 13.8915 12.0714 14.2859 12.0713C14.4753 12.0712 14.6569 11.996 14.7908 11.8621L19.7909 6.86205C20.0697 6.5831 20.0697 6.13096 19.7909 5.85205Z" fill="black"/>
</svg>
