<svg width="44" height="44" viewBox="0 0 44 44" fill="none" xmlns="http://www.w3.org/2000/svg">
<rect width="44" height="44" rx="22" fill="#EDEDED"/>
<circle cx="24" cy="23" r="4" stroke="#292D32" stroke-width="1.5"/>
<path d="M16 20H17" stroke="#292D32" stroke-width="1.5" stroke-linecap="round"/>
<path d="M15 16V15.5C15 14.6716 15.6716 14 16.5 14H18.5C19.3284 14 20 14.6716 20 15.5V16M15.5 30H28.5C29.8807 30 31 28.8807 31 27.5V18.5C31 17.1193 29.8807 16 28.5 16H25.25H22H15.5C14.1193 16 13 17.1193 13 18.5V27.5C13 28.8807 14.1193 30 15.5 30Z" stroke="#292D32" stroke-width="1.5" stroke-linecap="round"/>
</svg>
