<svg width="24" height="24" viewBox="0 0 24 24" fill="none" xmlns="http://www.w3.org/2000/svg">
<path d="M10.4533 16.998C10.2667 16.8113 10.1733 16.5827 10.1733 16.312C10.1733 16.0413 10.2667 15.8127 10.4533 15.626C10.64 15.4393 10.864 15.346 11.1253 15.346C11.396 15.346 11.6247 15.4393 11.8113 15.626C11.998 15.8127 12.0913 16.0413 12.0913 16.312C12.0913 16.5827 11.998 16.8113 11.8113 16.998C11.6247 17.1847 11.396 17.278 11.1253 17.278C10.864 17.278 10.64 17.1847 10.4533 16.998ZM8.87132 9.606C8.86199 8.74733 9.14199 8.052 9.71132 7.52C10.2807 6.988 11.0367 6.722 11.9793 6.722C12.9313 6.722 13.692 6.98333 14.2613 7.506C14.84 8.02867 15.1293 8.77067 15.1293 9.732C15.1293 10.684 14.854 11.3793 14.3033 11.818C13.7527 12.2567 12.936 12.4807 11.8533 12.49V14.198H10.3413V11.398H11.0133C11.8907 11.4073 12.5393 11.2953 12.9593 11.062C13.3887 10.8193 13.6033 10.348 13.6033 9.648C13.6033 9.15333 13.4587 8.766 13.1693 8.486C12.8893 8.206 12.4973 8.066 11.9933 8.066C11.4893 8.066 11.0927 8.20133 10.8033 8.472C10.514 8.74267 10.3693 9.12067 10.3693 9.606H8.87132Z" fill="#626262"/>
<rect x="1" y="1" width="22" height="22" rx="11" stroke="#626262" stroke-width="2"/>
</svg>
